<svg height="480pt" viewBox="0 0 480.0003 480" width="480pt" xmlns="http://www.w3.org/2000/svg"><path d="m463.574219 269.601562-31.574219-31.554687v-230.046875c0-4.417969-3.582031-8-8-8h-288c-4.417969 0-8 3.582031-8 8v183.601562c0 .144532.070312.261719.078125.398438h-120.078125c-4.417969 0-8 3.582031-8 8v112c.0429688 39.746094 32.253906 71.957031 72 72h254.992188c-3.230469 21.515625 1.695312 43.460938 13.808593 61.535156l3.199219 4.882813v29.582031h16v-34.398438l-5.910156-8.921874c-10.359375-15.46875-14.25-34.375-10.851563-52.679688h42.265625c.789063 11.796875 5.15625 23.074219 12.519532 32.328125l3.730468 4.664063c2.792969 3.316406 7.722656 3.804687 11.109375 1.097656 3.390625-2.707032 4.003907-7.625 1.382813-11.082032l-3.734375-4.671874c-13.5625-16.929688-12.207031-41.355469 3.144531-56.679688 3.121094-3.125 3.121094-8.1875 0-11.3125l-39.824219-39.832031c-3.292969-3.015625-3.785156-8.035157-1.136719-11.632813 1.476563-1.652344 3.558594-2.632812 5.773438-2.710937 2.214844-.082031 4.367188.746093 5.957031 2.289062l50.054688 50.054688c3.125 3.125 8.191406 3.128906 11.316406.003906s3.125-8.191406.003906-11.316406l-13.800781-13.792969v-50.734375l20.265625 20.265625c7.539063 7.496094 11.765625 17.699219 11.734375 28.335938v170.726562h16v-170.726562c.046875-14.890626-5.867188-29.175782-16.425781-39.671876zm-447.574219 42.398438v-104h112v104c0 30.929688-25.070312 56-56 56s-56-25.070312-56-56zm379.734375-36.855469c-9.578125-9.175781-24.78125-8.847656-33.953125.730469-9.175781 9.578125-8.847656 24.78125.730469 33.957031l34.558593 34.550781c-5.246093 6.980469-8.851562 15.050782-10.542968 23.617188h-269.367188c16.964844-13.640625 26.835938-34.230469 26.839844-56v-296h272v279.40625zm0 0"/><path d="m376 48h-192c-4.417969 0-8 3.582031-8 8v64c0 4.417969 3.582031 8 8 8h192c4.417969 0 8-3.582031 8-8v-64c0-4.417969-3.582031-8-8-8zm-8 64h-176v-48h176zm0 0"/><path d="m184 160h112v16h-112zm0 0"/><path d="m352 160h32v16h-32zm0 0"/><path d="m184 192h112v16h-112zm0 0"/><path d="m352 192h32v16h-32zm0 0"/><path d="m352 224h32v16h-32zm0 0"/><path d="m184 224h96v16h-96zm0 0"/><path d="m184 256h112v16h-112zm0 0"/><path d="m184 288h152v16h-152zm0 0"/></svg>