<svg height="682pt" viewBox="-21 -78 682.66669 682" width="682pt" xmlns="http://www.w3.org/2000/svg"><path d="m345 402.070312h-18.75v-18.75h18.75zm-31.25 0h-18.75v-18.75h18.75zm0 0"/><path d="m640 37.550781v-40.96875h-640v438.667969h232.203125l87.796875 87.796875 87.796875-87.796875h232.203125v-372.699219h-18.75v353.949219h-221.21875l-80.03125 80.035156-80.03125-80.035156h-221.21875v-401.167969h602.5v22.21875zm0 0"/><path d="m354.375 81.714844h-281.605469v62.320312h281.605469zm-18.75 43.570312h-244.105469v-24.820312h244.105469zm0 0"/><path d="m567.230469 176.355469h-242.519531v18.75h223.769531v24.824219h-456.960938v-24.824219h208.191407v-18.75h-226.941407v62.324219h494.460938zm0 0"/><path d="m72.769531 333.320312h481.960938v-62.324218h-481.960938zm18.75-43.574218h444.460938v24.824218h-444.460938zm0 0"/></svg>