<?xml version="1.0" encoding="iso-8859-1"?>
<!-- Generator: Adobe Illustrator 18.1.1, SVG Export Plug-In . SVG Version: 6.00 Build 0)  -->
<svg version="1.1" id="Capa_1" xmlns="http://www.w3.org/2000/svg" xmlns:xlink="http://www.w3.org/1999/xlink" x="0px" y="0px"
	 viewBox="0 0 290 290" style="enable-background:new 0 0 290 290;" xml:space="preserve">
<g>
	<path id="rect27128" d="M25,40C11.236,40,0,51.236,0,65v160c0,13.764,11.236,25,25,25h240c13.764,0,25-11.236,25-25V65
		c0-13.764-11.236-25-25-25H25z M25,50h240c8.396,0,15,6.604,15,15v160c0,8.396-6.604,15-15,15H25c-8.396,0-15-6.604-15-15V65
		C10,56.604,16.604,50,25,50z M20,57.5c-1.381,0-2.5,1.119-2.5,2.5v80c-0.02,1.381,1.084,2.516,2.465,2.535s2.516-1.084,2.535-2.465
		c0-0.024,0-0.047,0-0.071V62.5H70c1.381,0.02,2.516-1.084,2.535-2.465c0.02-1.381-1.084-2.516-2.465-2.535
		c-0.024,0-0.047,0-0.071,0H20z M144.924,64.928c-2.759,0.042-4.963,2.311-4.924,5.07v10.426
		c-14.055,2.375-24.812,14.573-24.969,29.258c-1.295,11.044,2.097,19.738,7.656,25.926c5.613,6.247,12.943,10.286,19.77,14.32
		s13.132,8.024,17.242,13.129s6.463,11.211,5.332,21.391c-0.021,0.183-0.031,0.367-0.031,0.551c0,11.166-8.834,20-20,20
		s-20-8.834-20-20c0.039-2.761-2.168-5.032-4.929-5.071c-2.761-0.039-5.032,2.168-5.071,4.929c-0.001,0.047-0.001,0.094,0,0.141
		c0,14.829,10.837,27.184,25,29.574v10.426c-0.096,6.762,10.096,6.762,10,0v-10.426c14.081-2.379,24.857-14.614,24.977-29.334
		c1.274-12.161-1.961-21.589-7.488-28.453c-5.577-6.926-13.022-11.374-19.945-15.465s-13.344-7.864-17.418-12.398
		s-6.265-9.499-5.164-18.303c0.026-0.206,0.039-0.413,0.039-0.621c0-11.166,8.834-20,20-20s20,8.834,20,20
		c-0.039,2.761,2.168,5.032,4.929,5.071c2.761,0.039,5.032-2.168,5.071-4.929c0.001-0.047,0.001-0.094,0-0.141
		c0-14.829-10.837-27.184-25-29.574V69.998C150.04,67.179,147.743,64.885,144.924,64.928z"/>
</g>
<g>
</g>
<g>
</g>
<g>
</g>
<g>
</g>
<g>
</g>
<g>
</g>
<g>
</g>
<g>
</g>
<g>
</g>
<g>
</g>
<g>
</g>
<g>
</g>
<g>
</g>
<g>
</g>
<g>
</g>
</svg>
