<?xml version="1.0" encoding="iso-8859-1"?>
<!-- Generator: Adobe Illustrator 16.0.0, SVG Export Plug-In . SVG Version: 6.00 Build 0)  -->
<!DOCTYPE svg PUBLIC "-//W3C//DTD SVG 1.1//EN" "http://www.w3.org/Graphics/SVG/1.1/DTD/svg11.dtd">
<svg version="1.1" id="Capa_1" xmlns="http://www.w3.org/2000/svg" xmlns:xlink="http://www.w3.org/1999/xlink" x="0px" y="0px"
	 width="438.99px" height="438.99px" viewBox="0 0 438.99 438.99" style="enable-background:new 0 0 438.99 438.99;"
	 xml:space="preserve">
<g>
	<g>
		<path d="M320.004,371.979c-20.344,0-39.75-6.082-56.154-17.375H30V75.62h370.48v138.818c12.23,16.831,18.839,37.019,18.839,58.226
			c0,14.3-3.019,28.22-8.819,40.999l19.98,19.98V60.62c0-8.284-6.717-15-15-15H15c-8.284,0-15,6.716-15,15v308.984
			c0,8.283,6.716,15,15,15h367.448l-21.444-21.444C348.224,368.962,334.304,371.979,320.004,371.979z"/>
		<path d="M73.458,111.83v214.489c0,8.283,6.716,15,15,15c8.284,0,15-6.717,15-15V111.83c0-8.284-6.716-15-15-15
			C80.174,96.83,73.458,103.546,73.458,111.83z"/>
		<path d="M133.458,111.83v214.489c0,8.283,6.716,15,15,15c8.284,0,15-6.717,15-15V111.83c0-8.284-6.716-15-15-15
			C140.174,96.83,133.458,103.546,133.458,111.83z"/>
		<path d="M223.458,111.83c0-8.284-6.716-15-15-15c-8.284,0-15,6.716-15,15v214.489c0,8.283,6.716,15,15,15c8.284,0,15-6.717,15-15
			v-30.355c-1.8-7.539-2.733-15.347-2.733-23.3c0-7.954,0.934-15.761,2.733-23.301V111.83z"/>
		<path d="M253.458,111.83v87.106c8.918-8.068,19.065-14.349,30-18.671v-68.436c0-8.284-6.716-15-15-15
			S253.458,103.546,253.458,111.83z"/>
		<path d="M313.458,111.83v61.735c2.17-0.14,4.353-0.218,6.546-0.218c8.005,0,15.864,0.947,23.454,2.776v-64.294
			c0-8.284-6.716-15-15-15S313.458,103.546,313.458,111.83z"/>
		<path d="M434.597,367.764l-50.705-50.706c8.855-13.021,13.629-28.379,13.629-44.474c0-21.187-8.25-41.104-23.231-56.085
			c-14.979-14.981-34.897-23.231-56.084-23.231c-21.186,0-41.104,8.25-56.085,23.231c-30.925,30.926-30.925,81.244,0,112.169
			c14.981,14.981,34.899,23.231,56.085,23.231c16.095,0,31.452-4.772,44.474-13.629l50.706,50.706
			c2.93,2.929,6.769,4.394,10.606,4.394s7.678-1.465,10.605-4.394C440.455,383.118,440.455,373.621,434.597,367.764z
			 M353.076,307.455c-9.314,9.313-21.698,14.444-34.871,14.444s-25.557-5.131-34.872-14.444c-19.228-19.229-19.228-50.515,0-69.743
			c9.315-9.314,21.699-14.443,34.872-14.443s25.557,5.129,34.872,14.443s14.444,21.699,14.444,34.872
			S362.392,298.142,353.076,307.455z"/>
	</g>
</g>
<g>
</g>
<g>
</g>
<g>
</g>
<g>
</g>
<g>
</g>
<g>
</g>
<g>
</g>
<g>
</g>
<g>
</g>
<g>
</g>
<g>
</g>
<g>
</g>
<g>
</g>
<g>
</g>
<g>
</g>
</svg>
